<svg xmlns="http://www.w3.org/2000/svg" width="1760" height="1258" viewBox="0 0 1760 1258" font-family="JetBrains Mono, ui-monospace, SFMono-Regular, Menlo, monospace">
<defs>
<marker id="arw" viewBox="0 0 10 10" refX="9" refY="5" markerWidth="7" markerHeight="7" orient="auto-start-reverse"><path d="M 0 0 L 10 5 L 0 10 z" fill="#64748b"/></marker>
<pattern id="grid" width="40" height="40" patternUnits="userSpaceOnUse"><path d="M 40 0 H 0 V 40" fill="none" stroke="#0f172a" stroke-width="1"/></pattern>
</defs>
<rect width="1760" height="1258" fill="#020617"/>
<rect width="1760" height="1258" fill="url(#grid)"/>
<circle cx="39" cy="46" r="5" fill="#34d399"><animate attributeName="opacity" values="1;.35;1" dur="2.4s" repeatCount="indefinite"/></circle>
<text x="56" y="52" font-size="24" font-weight="700" fill="#e2e8f0">Hermes Trading System — Schnittstellen-Landkarte</text>
<text x="32" y="82" font-size="12" fill="#94a3b8">Quelle: docs/system/registry.json · generiert 2026-10-01 09:37 UTC · 37 Schnittstellen · 28 Datenflüsse · 18 Impact-Regeln</text>
<text x="32" y="102" font-size="11" fill="#64748b">Konvention: Box = Schnittstelle (Farbe = Zone) · Pfeil = Datenfluss/Autorität · Details &amp; Prüfpflichten im REGISTER.md</text>
<g opacity="0.75">
<line x1="378" y1="216" x2="378" y2="328" stroke="#475569" stroke-width="1.4" marker-end="url(#arw)"/>
<line x1="580" y1="216" x2="426" y2="328" stroke="#475569" stroke-width="1.4" marker-end="url(#arw)"/>
<line x1="498" y1="363" x2="508" y2="363" stroke="#475569" stroke-width="1.4" marker-end="url(#arw)"/>
<line x1="748" y1="363" x2="758" y2="363" stroke="#475569" stroke-width="1.4" marker-end="url(#arw)"/>
<line x1="748" y1="363" x2="1258" y2="363" stroke="#475569" stroke-width="1.4" marker-end="url(#arw)"/>
<line x1="498" y1="649" x2="508" y2="649" stroke="#475569" stroke-width="1.4" marker-end="url(#arw)"/>
<line x1="758" y1="649" x2="748" y2="649" stroke="#475569" stroke-width="1.4" marker-end="url(#arw)"/>
<line x1="748" y1="649" x2="1008" y2="649" stroke="#475569" stroke-width="1.4" marker-end="url(#arw)"/>
<line x1="1258" y1="649" x2="748" y2="649" stroke="#475569" stroke-width="1.4" marker-end="url(#arw)"/>
<line x1="1008" y1="661" x2="498" y2="715" stroke="#475569" stroke-width="1.4" marker-end="url(#arw)"/>
<line x1="406" y1="762" x2="600" y2="1004" stroke="#475569" stroke-width="1.4" marker-end="url(#arw)"/>
<line x1="462" y1="432" x2="544" y2="398" stroke="#475569" stroke-width="1.4" marker-end="url(#arw)"/>
<line x1="628" y1="432" x2="628" y2="398" stroke="#475569" stroke-width="1.4" marker-end="url(#arw)"/>
<line x1="1258" y1="450" x2="748" y2="380" stroke="#475569" stroke-width="1.4" marker-end="url(#arw)"/>
<line x1="1008" y1="450" x2="498" y2="380" stroke="#475569" stroke-width="1.4" marker-end="url(#arw)"/>
<line x1="397" y1="796" x2="609" y2="398" stroke="#475569" stroke-width="1.4" marker-end="url(#arw)"/>
<line x1="1258" y1="363" x2="748" y2="363" stroke="#475569" stroke-width="1.4" marker-end="url(#arw)"/>
<line x1="859" y1="796" x2="647" y2="398" stroke="#475569" stroke-width="1.4" marker-end="url(#arw)"/>
<line x1="378" y1="900" x2="378" y2="684" stroke="#475569" stroke-width="1.4" marker-end="url(#arw)"/>
<line x1="597" y1="900" x2="409" y2="684" stroke="#475569" stroke-width="1.4" marker-end="url(#arw)"/>
<line x1="665" y1="216" x2="1091" y2="614" stroke="#475569" stroke-width="1.4" marker-end="url(#arw)"/>
<line x1="498" y1="1039" x2="508" y2="1039" stroke="#475569" stroke-width="1.4" marker-end="url(#arw)"/>
<line x1="402" y1="502" x2="604" y2="796" stroke="#475569" stroke-width="1.4" marker-end="url(#arw)"/>
<line x1="1091" y1="796" x2="665" y2="398" stroke="#475569" stroke-width="1.4" marker-end="url(#arw)"/>
<line x1="758" y1="442" x2="498" y2="388" stroke="#475569" stroke-width="1.4" marker-end="url(#arw)"/>
<line x1="926" y1="502" x2="1080" y2="614" stroke="#475569" stroke-width="1.4" marker-end="url(#arw)"/>
<line x1="544" y1="432" x2="462" y2="398" stroke="#475569" stroke-width="1.4" marker-end="url(#arw)"/>
<line x1="508" y1="1039" x2="498" y2="1039" stroke="#475569" stroke-width="1.4" marker-end="url(#arw)"/>
</g>
<rect x="24" y="132" width="1712" height="182" rx="10" fill="#07323e" fill-opacity="0.30" stroke="#22d3ee" stroke-opacity="0.35" stroke-width="1.2"/>
<text x="40" y="162" font-size="15" font-weight="700" fill="#22d3ee">📡 Marktdaten-Kette</text>
<text x="40" y="180" font-size="10" fill="#94a3b8">7 Schnittstellen</text>
<g>
<rect x="260" y="148" width="236" height="66" rx="6" fill="#0b1220" stroke="#22d3ee" stroke-width="1.4"/>
<text x="272" y="172" font-size="12" font-weight="700" fill="#e2e8f0">📶 Live-Stream (Feed v3)</text>
<text x="272" y="190" font-size="9" fill="#94a3b8">EINZIGE Live-Quelle (Quotes/Bars) — ctrader-feed-v3.service…</text>
<text x="272" y="204" font-size="8" fill="#475569">feed_stream</text>
</g>
<g>
<rect x="510" y="148" width="236" height="66" rx="6" fill="#0b1220" stroke="#22d3ee" stroke-width="1.4"/>
<text x="522" y="172" font-size="12" font-weight="700" fill="#e2e8f0">🗄️ market.db (OHLCV-Bars)</text>
<text x="522" y="190" font-size="9" fill="#94a3b8">EINZIGE Bar-Quelle für Scanner, Shadow und Lab. Lesen ja —…</text>
<text x="522" y="204" font-size="8" fill="#475569">market_db</text>
</g>
<g>
<rect x="760" y="148" width="236" height="66" rx="6" fill="#0b1220" stroke="#22d3ee" stroke-width="1.4"/>
<text x="772" y="172" font-size="12" font-weight="700" fill="#e2e8f0">🔄 Quick-Fetch (19 aktive)</text>
<text x="772" y="190" font-size="9" fill="#94a3b8">Schnell-Fetch der 18-19 aktiven Symbole (Bot+Shadow) — läuf…</text>
<text x="772" y="204" font-size="8" fill="#475569">fetch_quick</text>
</g>
<g>
<rect x="1010" y="148" width="236" height="66" rx="6" fill="#0b1220" stroke="#22d3ee" stroke-width="1.4"/>
<text x="1022" y="172" font-size="12" font-weight="700" fill="#e2e8f0">⏱️ M15-Fetch (XAU/XAG)</text>
<text x="1022" y="190" font-size="9" fill="#94a3b8">15-Minuten-Fetch für Metalle; ExecStartPost synct m15→1h-Ag…</text>
<text x="1022" y="204" font-size="8" fill="#475569">fetch_m15</text>
</g>
<g>
<rect x="1260" y="148" width="236" height="66" rx="6" fill="#0b1220" stroke="#22d3ee" stroke-width="1.4"/>
<text x="1272" y="172" font-size="12" font-weight="700" fill="#e2e8f0">🏦 Indizes/Metalle-Fetch</text>
<text x="1272" y="190" font-size="9" fill="#94a3b8">Stündlicher Fetch (:05) für Index-CFDs + Metalle.</text>
<text x="1272" y="204" font-size="8" fill="#475569">fetch_indices</text>
</g>
<g>
<rect x="260" y="226" width="236" height="66" rx="6" fill="#0b1220" stroke="#22d3ee" stroke-width="1.4"/>
<text x="272" y="250" font-size="12" font-weight="700" fill="#e2e8f0">🌙 Nightly Deep-Sync</text>
<text x="272" y="268" font-size="9" fill="#94a3b8">03:07 UTC: Tiefen-Sync aller nicht-aktiven Symbole + voller…</text>
<text x="272" y="282" font-size="8" fill="#475569">deep_refresh</text>
</g>
<g>
<rect x="510" y="226" width="236" height="66" rx="6" fill="#0b1220" stroke="#22d3ee" stroke-width="1.4"/>
<text x="522" y="250" font-size="12" font-weight="700" fill="#e2e8f0">🏛️ COT-Daten</text>
<text x="522" y="268" font-size="9" fill="#94a3b8">Freitag 22:45 BZ (+ Sa 09:00 BZ Fallback): COT-Positionieru…</text>
<text x="522" y="282" font-size="8" fill="#475569">cot_data</text>
</g>
<rect x="24" y="314" width="1712" height="104" rx="10" fill="#06392c" fill-opacity="0.30" stroke="#34d399" stroke-opacity="0.35" stroke-width="1.2"/>
<text x="40" y="344" font-size="15" font-weight="700" fill="#34d399">⚡ Scanner &amp; Execution</text>
<text x="40" y="362" font-size="10" fill="#94a3b8">5 Schnittstellen</text>
<g>
<rect x="260" y="330" width="236" height="66" rx="6" fill="#0b1220" stroke="#34d399" stroke-width="1.4"/>
<text x="272" y="354" font-size="12" font-weight="700" fill="#e2e8f0">🔍 Scanner (trend_engine)</text>
<text x="272" y="372" font-size="9" fill="#94a3b8">1 Prozess je Bot (botN-scanner.service) erzeugt Signale aus…</text>
<text x="272" y="386" font-size="8" fill="#475569">scanner</text>
</g>
<g>
<rect x="510" y="330" width="236" height="66" rx="6" fill="#0b1220" stroke="#34d399" stroke-width="1.4"/>
<text x="522" y="354" font-size="12" font-weight="700" fill="#e2e8f0">⚙️ Executor (trend_executor)</text>
<text x="522" y="372" font-size="9" fill="#94a3b8">EINZIGER Live-Ordering-Pfad (cTrader Open API). Konsumiert:…</text>
<text x="522" y="386" font-size="8" fill="#475569">executor</text>
</g>
<g>
<rect x="760" y="330" width="236" height="66" rx="6" fill="#0b1220" stroke="#34d399" stroke-width="1.4"/>
<text x="772" y="354" font-size="12" font-weight="700" fill="#e2e8f0">🧾 Consumed-Ledger</text>
<text x="772" y="372" font-size="9" fill="#94a3b8">Executor schreibt; EINZIGE Quelle für &#x27;Signal schon versuch…</text>
<text x="772" y="386" font-size="8" fill="#475569">consumed_ledger</text>
</g>
<g>
<rect x="1010" y="330" width="236" height="66" rx="6" fill="#0b1220" stroke="#34d399" stroke-width="1.4"/>
<text x="1022" y="354" font-size="12" font-weight="700" fill="#e2e8f0">📌 Live-Positionen (Anzeige)</text>
<text x="1022" y="372" font-size="9" fill="#94a3b8">Executor pflegt Ist-Positionen; Website/Dashboard + Parity…</text>
<text x="1022" y="386" font-size="8" fill="#475569">positions_live</text>
</g>
<g>
<rect x="1260" y="330" width="236" height="66" rx="6" fill="#0b1220" stroke="#34d399" stroke-width="1.4"/>
<text x="1272" y="354" font-size="12" font-weight="700" fill="#e2e8f0">💰 Balance-Dateien (+md2)</text>
<text x="1272" y="372" font-size="9" fill="#94a3b8">fetch_bot_balance.py (5-min-Timer) schreibt; Sizing + Websi…</text>
<text x="1272" y="386" font-size="8" fill="#475569">balance_files</text>
</g>
<rect x="24" y="418" width="1712" height="182" rx="10" fill="#3a2c07" fill-opacity="0.30" stroke="#fbbf24" stroke-opacity="0.35" stroke-width="1.2"/>
<text x="40" y="448" font-size="15" font-weight="700" fill="#fbbf24">🪪 Registry &amp; Identität</text>
<text x="40" y="466" font-size="10" fill="#94a3b8">6 Schnittstellen</text>
<g>
<rect x="260" y="434" width="236" height="66" rx="6" fill="#0b1220" stroke="#fbbf24" stroke-width="1.4"/>
<text x="272" y="458" font-size="12" font-weight="700" fill="#e2e8f0">🪪 deploy_registry.json</text>
<text x="272" y="476" font-size="9" fill="#94a3b8">SSOT für Bot↔Strategie-Mapping (bots{}), shadow_mapping, sh…</text>
<text x="272" y="490" font-size="8" fill="#475569">deploy_registry</text>
</g>
<g>
<rect x="510" y="434" width="236" height="66" rx="6" fill="#0b1220" stroke="#fbbf24" stroke-width="1.4"/>
<text x="522" y="458" font-size="12" font-weight="700" fill="#e2e8f0">🔢 Symbol-IDs (pro Konto)</text>
<text x="522" y="476" font-size="9" fill="#94a3b8">symbol_ids.py = Auflösungs-SSOT; symbol_ids_by_account.json…</text>
<text x="522" y="490" font-size="8" fill="#475569">sym_ids</text>
</g>
<g>
<rect x="760" y="434" width="236" height="66" rx="6" fill="#0b1220" stroke="#fbbf24" stroke-width="1.4"/>
<text x="772" y="458" font-size="12" font-weight="700" fill="#e2e8f0">📏 Skalen &amp; Pip-Größen (symbol_config)</text>
<text x="772" y="476" font-size="9" fill="#94a3b8">KANONISCHE Quelle für pip_size, Digits, Volumen-/Kontrakt-S…</text>
<text x="772" y="490" font-size="8" fill="#475569">symbol_scale</text>
</g>
<g>
<rect x="1010" y="434" width="236" height="66" rx="6" fill="#0b1220" stroke="#fbbf24" stroke-width="1.4"/>
<text x="1022" y="458" font-size="12" font-weight="700" fill="#e2e8f0">🌳 Strategie-Trees (labN_tree.json)</text>
<text x="1022" y="476" font-size="9" fill="#94a3b8">unified_tree-Engine = EIN Signalpfad für Backtest=Shadow=Li…</text>
<text x="1022" y="490" font-size="8" fill="#475569">tree_files</text>
</g>
<g>
<rect x="1260" y="434" width="236" height="66" rx="6" fill="#0b1220" stroke="#fbbf24" stroke-width="1.4"/>
<text x="1272" y="458" font-size="12" font-weight="700" fill="#e2e8f0">🎛️ Bot-Configs (TOML/JSON-Split)</text>
<text x="1272" y="476" font-size="9" fill="#94a3b8">Je Bot: JSON (Basis) + Assets-TOML + Risk-TOML (Split-Paar)…</text>
<text x="1272" y="490" font-size="8" fill="#475569">bot_configs</text>
</g>
<g>
<rect x="260" y="512" width="236" height="66" rx="6" fill="#0b1220" stroke="#fbbf24" stroke-width="1.4"/>
<text x="272" y="536" font-size="12" font-weight="700" fill="#e2e8f0">🧭 Deploy-Manifest (Registry↔Units↔TOMLs…</text>
<text x="272" y="554" font-size="9" fill="#94a3b8">Dry-Run-Diff der vier Bot-Wahrheiten. ERR = Vertragsbruch (…</text>
<text x="272" y="568" font-size="8" fill="#475569">deploy_manifest</text>
</g>
<rect x="24" y="600" width="1712" height="182" rx="10" fill="#2a1a53" fill-opacity="0.30" stroke="#a78bfa" stroke-opacity="0.35" stroke-width="1.2"/>
<text x="40" y="630" font-size="15" font-weight="700" fill="#a78bfa">👻 Shadow-Trading</text>
<text x="40" y="648" font-size="10" fill="#94a3b8">6 Schnittstellen</text>
<g>
<rect x="260" y="616" width="236" height="66" rx="6" fill="#0b1220" stroke="#a78bfa" stroke-width="1.4"/>
<text x="272" y="640" font-size="12" font-weight="700" fill="#e2e8f0">📚 catalog.db (Lab-Strategiekatalog)</text>
<text x="272" y="658" font-size="9" fill="#94a3b8">SSOT aller Strategien: status (validated 31/candidate 116/a…</text>
<text x="272" y="672" font-size="8" fill="#475569">catalog_db</text>
</g>
<g>
<rect x="510" y="616" width="236" height="66" rx="6" fill="#0b1220" stroke="#a78bfa" stroke-width="1.4"/>
<text x="522" y="640" font-size="12" font-weight="700" fill="#e2e8f0">📋 selected_ids.json</text>
<text x="522" y="658" font-size="9" fill="#94a3b8">Autoritative Shadow-Liste (aktuell 74) — der Zyklus handelt…</text>
<text x="522" y="672" font-size="8" fill="#475569">shadow_selected</text>
</g>
<g>
<rect x="760" y="616" width="236" height="66" rx="6" fill="#0b1220" stroke="#a78bfa" stroke-width="1.4"/>
<text x="772" y="640" font-size="12" font-weight="700" fill="#e2e8f0">🎯 shadow_overrides (force_include)</text>
<text x="772" y="658" font-size="9" fill="#94a3b8">Registry-Einträge, die Strategien UNABHÄNGIG vom Katalog-St…</text>
<text x="772" y="672" font-size="8" fill="#475569">shadow_overrides</text>
</g>
<g>
<rect x="1010" y="616" width="236" height="66" rx="6" fill="#0b1220" stroke="#a78bfa" stroke-width="1.4"/>
<text x="1022" y="640" font-size="12" font-weight="700" fill="#e2e8f0">👻 Shadow-Zyklus</text>
<text x="1022" y="658" font-size="9" fill="#94a3b8">Alle 15min (:05/:20/:35/:50): promote → trader → portfolio…</text>
<text x="1022" y="672" font-size="8" fill="#475569">shadow_cycle</text>
</g>
<g>
<rect x="1260" y="616" width="236" height="66" rx="6" fill="#0b1220" stroke="#a78bfa" stroke-width="1.4"/>
<text x="1272" y="640" font-size="12" font-weight="700" fill="#e2e8f0">🚦 Auto-Promote &amp; Removal</text>
<text x="1272" y="658" font-size="9" fill="#94a3b8">Auswahl/Entfernung der Shadow-Strategien: Gates (Tier A/B,…</text>
<text x="1272" y="672" font-size="8" fill="#475569">shadow_auto_promote</text>
</g>
<g>
<rect x="260" y="694" width="236" height="66" rx="6" fill="#0b1220" stroke="#a78bfa" stroke-width="1.4"/>
<text x="272" y="718" font-size="12" font-weight="700" fill="#e2e8f0">🗂️ Portfolio-JSON (Website)</text>
<text x="272" y="736" font-size="9" fill="#94a3b8">Builder erzeugt alle 5min das 👻-Tab-JSON (strategies[], bot…</text>
<text x="272" y="750" font-size="8" fill="#475569">shadow_portfolio</text>
</g>
<rect x="24" y="782" width="1712" height="104" rx="10" fill="#4a1420" fill-opacity="0.30" stroke="#fb7185" stroke-opacity="0.35" stroke-width="1.2"/>
<text x="40" y="812" font-size="15" font-weight="700" fill="#fb7185">🛡️ Risiko &amp; Schutz</text>
<text x="40" y="830" font-size="10" fill="#94a3b8">5 Schnittstellen</text>
<g>
<rect x="260" y="798" width="236" height="66" rx="6" fill="#0b1220" stroke="#fb7185" stroke-width="1.4"/>
<text x="272" y="822" font-size="12" font-weight="700" fill="#e2e8f0">🛡️ Risk-Guard (DD-Leiter + MDL/ML)</text>
<text x="272" y="840" font-size="9" fill="#94a3b8">5-min-Timer; Zustand je Bot in botN_risk_state.json; Enforc…</text>
<text x="272" y="854" font-size="8" fill="#475569">risk_guards</text>
</g>
<g>
<rect x="510" y="798" width="236" height="66" rx="6" fill="#0b1220" stroke="#fb7185" stroke-width="1.4"/>
<text x="522" y="822" font-size="12" font-weight="700" fill="#e2e8f0">🐕 Trading-Watchdog</text>
<text x="522" y="840" font-size="9" fill="#94a3b8">10-min-Heilung + Telegram-Alarme: Unit-Status, Spiegelsync…</text>
<text x="522" y="854" font-size="8" fill="#475569">watchdog</text>
</g>
<g>
<rect x="760" y="798" width="236" height="66" rx="6" fill="#0b1220" stroke="#fb7185" stroke-width="1.4"/>
<text x="772" y="822" font-size="12" font-weight="700" fill="#e2e8f0">🔐 Arming-Flags (LIVE)</text>
<text x="772" y="840" font-size="9" fill="#94a3b8">LIVE-Bots traden NUR mit armed.flag UND ohne paused.flag (f…</text>
<text x="772" y="854" font-size="8" fill="#475569">arming</text>
</g>
<g>
<rect x="1010" y="798" width="236" height="66" rx="6" fill="#0b1220" stroke="#fb7185" stroke-width="1.4"/>
<text x="1022" y="822" font-size="12" font-weight="700" fill="#e2e8f0">📅 Weekend-/Feiertags-Gate</text>
<text x="1022" y="840" font-size="9" fill="#94a3b8">Keine NEUEN Trades Fr21:00-So21:00 UTC; offene Positionen b…</text>
<text x="1022" y="854" font-size="8" fill="#475569">weekend_gate</text>
</g>
<g>
<rect x="1260" y="798" width="236" height="66" rx="6" fill="#0b1220" stroke="#fb7185" stroke-width="1.4"/>
<text x="1272" y="822" font-size="12" font-weight="700" fill="#e2e8f0">🎛️ Ein-Knopf-Systemcheck</text>
<text x="1272" y="840" font-size="9" fill="#94a3b8">Aggregierter Prüfstelle-Runner: Register-Drift, Ist-Inventa…</text>
<text x="1272" y="854" font-size="8" fill="#475569">system_check</text>
</g>
<rect x="24" y="886" width="1712" height="104" rx="10" fill="#4a2408" fill-opacity="0.30" stroke="#fb923c" stroke-opacity="0.35" stroke-width="1.2"/>
<text x="40" y="916" font-size="15" font-weight="700" fill="#fb923c">🔬 Strategy Lab</text>
<text x="40" y="934" font-size="10" fill="#94a3b8">2 Schnittstellen</text>
<g>
<rect x="260" y="902" width="236" height="66" rx="6" fill="#0b1220" stroke="#fb923c" stroke-width="1.4"/>
<text x="272" y="926" font-size="12" font-weight="700" fill="#e2e8f0">🤖 R&amp;D-Worker</text>
<text x="272" y="944" font-size="9" fill="#94a3b8">Kontinuierliche Strategie-Produktion (recipe_llm_cluster);…</text>
<text x="272" y="958" font-size="8" fill="#475569">worker</text>
</g>
<g>
<rect x="510" y="902" width="236" height="66" rx="6" fill="#0b1220" stroke="#fb923c" stroke-width="1.4"/>
<text x="522" y="926" font-size="12" font-weight="700" fill="#e2e8f0">🧪 Quality-Gates (WFO/OOS)</text>
<text x="522" y="944" font-size="9" fill="#94a3b8">5 harte Gates + Feuer-Test: PF≥1,10 (Shadow 1,20), tier_v2…</text>
<text x="522" y="958" font-size="8" fill="#475569">lab_gates</text>
</g>
<rect x="24" y="990" width="1712" height="182" rx="10" fill="#1e293b" fill-opacity="0.30" stroke="#94a3b8" stroke-opacity="0.35" stroke-width="1.2"/>
<text x="40" y="1020" font-size="15" font-weight="700" fill="#94a3b8">🖥️ Website &amp; Reports</text>
<text x="40" y="1038" font-size="10" fill="#94a3b8">6 Schnittstellen</text>
<g>
<rect x="260" y="1006" width="236" height="66" rx="6" fill="#0b1220" stroke="#94a3b8" stroke-width="1.4"/>
<text x="272" y="1030" font-size="12" font-weight="700" fill="#e2e8f0">🏗️ Website-Build-Kette</text>
<text x="272" y="1048" font-size="9" fill="#94a3b8">build.py: content/&lt;page&gt;/sections.json → src/content/*.html…</text>
<text x="272" y="1062" font-size="8" fill="#475569">site_build</text>
</g>
<g>
<rect x="510" y="1006" width="236" height="66" rx="6" fill="#0b1220" stroke="#94a3b8" stroke-width="1.4"/>
<text x="522" y="1030" font-size="12" font-weight="700" fill="#e2e8f0">🔌 API-JSONs (Website-Daten)</text>
<text x="522" y="1048" font-size="9" fill="#94a3b8">Builder (build_overview_status/build_trend_status/build_dat…</text>
<text x="522" y="1062" font-size="8" fill="#475569">site_apis</text>
</g>
<g>
<rect x="760" y="1006" width="236" height="66" rx="6" fill="#0b1220" stroke="#94a3b8" stroke-width="1.4"/>
<text x="772" y="1030" font-size="12" font-weight="700" fill="#e2e8f0">📝 Beschreibungs-System</text>
<text x="772" y="1048" font-size="9" fill="#94a3b8">DETERMINISTISCHER Generator + Backfill; Quelle: labN_tree.j…</text>
<text x="772" y="1062" font-size="8" fill="#475569">descriptions</text>
</g>
<g>
<rect x="1010" y="1006" width="236" height="66" rx="6" fill="#0b1220" stroke="#94a3b8" stroke-width="1.4"/>
<text x="1022" y="1030" font-size="12" font-weight="700" fill="#e2e8f0">📑 Reports &amp; Audits</text>
<text x="1022" y="1048" font-size="9" fill="#94a3b8">Incident-/Audit-Doku + DIESES Register. Neue Befunde gehöre…</text>
<text x="1022" y="1062" font-size="8" fill="#475569">reports_audit</text>
</g>
<g>
<rect x="1260" y="1006" width="236" height="66" rx="6" fill="#0b1220" stroke="#94a3b8" stroke-width="1.4"/>
<text x="1272" y="1030" font-size="12" font-weight="700" fill="#e2e8f0">📜 Konsumenten-Verträge (API-JSONs)</text>
<text x="1272" y="1048" font-size="9" fill="#94a3b8">Format-Verträge der Konsumenten-JSONs: Shadow-Portfolio, Ov…</text>
<text x="1272" y="1062" font-size="8" fill="#475569">check_contracts</text>
</g>
<g>
<rect x="260" y="1084" width="236" height="66" rx="6" fill="#0b1220" stroke="#94a3b8" stroke-width="1.4"/>
<text x="272" y="1108" font-size="12" font-weight="700" fill="#e2e8f0">🗺️ Gesamtübersicht (Bausteine &amp; Abläufe)</text>
<text x="272" y="1126" font-size="9" fill="#94a3b8">Statische Gesamtübersicht (Ebenen + Abläufe), generiert von…</text>
<text x="272" y="1140" font-size="8" fill="#475569">system_overview</text>
</g>
<line x1="32" y1="1190" x2="1728" y2="1190" stroke="#1e293b" stroke-width="1"/>
<rect x="32" y="1206" width="22" height="14" rx="3" fill="#0b1220" stroke="#22d3ee"/>
<text x="64" y="1217" font-size="10" fill="#94a3b8">Schnittstelle (Farbe = Zone)</text>
<line x1="292" y1="1213" x2="332" y2="1213" stroke="#475569" stroke-width="1.4" marker-end="url(#arw)"/>
<text x="344" y="1217" font-size="10" fill="#94a3b8">Datenfluss / Autorität</text>
<text x="1718" y="1217" font-size="10" fill="#64748b" text-anchor="end">generiert von build_system_docs.py — nie händisch editieren</text>
<text x="32" y="1242" font-size="10" fill="#64748b">Drift-Check: build_system_docs.py --check · Konsumenten-Ist: system_inventory.py · Details: REGISTER.md</text>
</svg>